<svg width="14" height="15" viewBox="0 0 14 15" fill="none" xmlns="http://www.w3.org/2000/svg">
<circle cx="7" cy="8" r="7" fill="black"/>
<path d="M7.04566 3.76C7.499 3.76 7.889 3.84 8.21566 4C8.54233 4.16 8.789 4.38 8.95566 4.66C9.12233 4.94 9.20566 5.25667 9.20566 5.61C9.20566 6.05 9.07566 6.42 8.81566 6.72C8.56233 7.02 8.189 7.2 7.69566 7.26V7.32C8.209 7.45333 8.609 7.66 8.89566 7.94C9.189 8.22 9.33566 8.60667 9.33566 9.1C9.33566 9.68 9.14233 10.1533 8.75566 10.52C8.369 10.8867 7.81233 11.07 7.08566 11.07C6.359 11.07 5.769 10.8833 5.31566 10.51C4.869 10.13 4.60566 9.57667 4.52566 8.85H5.42566C5.48566 9.29 5.65233 9.64 5.92566 9.9C6.20566 10.16 6.58233 10.29 7.05566 10.29C7.50233 10.29 7.84566 10.1767 8.08566 9.95C8.32566 9.71667 8.44566 9.41667 8.44566 9.05C8.44566 8.61 8.27233 8.27667 7.92566 8.05C7.58566 7.81667 7.099 7.7 6.46566 7.7H6.22566V6.94H6.46566C7.69233 6.94 8.30566 6.53 8.30566 5.71C8.30566 5.35 8.19233 5.06333 7.96566 4.85C7.739 4.63667 7.42566 4.53 7.02566 4.53C6.62566 4.53 6.289 4.64667 6.01566 4.88C5.74233 5.10667 5.58233 5.44333 5.53566 5.89H4.64566C4.69233 5.22333 4.92233 4.70333 5.33566 4.33C5.75566 3.95 6.32566 3.76 7.04566 3.76Z" fill="white"/>
</svg>
