<svg width="22" height="18" viewBox="0 0 22 18" fill="none" xmlns="http://www.w3.org/2000/svg">
<path d="M18.8813 4.98877C19.7353 4.38239 20.4537 3.62552 21.0391 2.75402V2.75314C20.2577 3.09527 19.4264 3.32277 18.5584 3.43302C19.4509 2.90014 20.1326 2.06277 20.4528 1.05389C19.6207 1.55002 18.7019 1.90002 17.7228 2.09602C16.9327 1.25427 15.8066 0.733643 14.5781 0.733643C12.1946 0.733643 10.2757 2.66827 10.2757 5.03952C10.2757 5.38077 10.3046 5.70889 10.3754 6.02127C6.79669 5.84627 3.62919 4.13127 1.50119 1.51764C1.13019 2.16252 0.911438 2.90014 0.911438 3.69377C0.911438 5.18477 1.67881 6.50602 2.82419 7.27164C2.13206 7.25852 1.45394 7.05727 0.879062 6.74139V6.78864C0.879062 8.88077 2.37094 10.6185 4.32831 11.0193C3.97744 11.1155 3.59594 11.161 3.19956 11.161C2.92394 11.161 2.64569 11.1453 2.38494 11.0875C2.94231 12.792 4.52606 14.0459 6.40731 14.087C4.94256 15.2324 3.08231 15.9228 1.06894 15.9228C0.716313 15.9228 0.377687 15.907 0.0390625 15.8641C1.94656 17.0935 4.20581 17.7961 6.64356 17.7961C14.2412 17.7961 19.1928 11.4576 18.8813 4.98877Z" fill="#8A5137"/>
</svg>
