<svg width="11" height="18" viewBox="0 0 11 18" fill="none" xmlns="http://www.w3.org/2000/svg">
<path d="M9.78792 0.769406L7.58343 0.765869C5.10675 0.765869 3.50621 2.40798 3.50621 4.94959V6.87857H1.28969C1.09816 6.87857 0.943054 7.03385 0.943054 7.22538V10.0203C0.943054 10.2118 1.09833 10.3669 1.28969 10.3669H3.50621V17.4192C3.50621 17.6108 3.66131 17.7659 3.85285 17.7659H6.74478C6.93632 17.7659 7.09142 17.6106 7.09142 17.4192V10.3669H9.68305C9.87458 10.3669 10.0297 10.2118 10.0297 10.0203L10.0307 7.22538C10.0307 7.13342 9.99414 7.04534 9.92923 6.98026C9.86433 6.91518 9.7759 6.87857 9.68393 6.87857H7.09142V5.24335C7.09142 4.4574 7.27871 4.05841 8.30252 4.05841L9.78757 4.05788C9.97893 4.05788 10.134 3.9026 10.134 3.71124V1.11605C10.134 0.924863 9.9791 0.76976 9.78792 0.769406Z" fill="white"/>
</svg>
