<svg width="18" height="18" viewBox="0 0 18 18" fill="none" xmlns="http://www.w3.org/2000/svg">
<path d="M12.4373 0.764893H4.6408C2.10336 0.764893 0.0390625 2.82919 0.0390625 5.36663V13.1633C0.0390625 15.7006 2.10336 17.7649 4.6408 17.7649H12.4374C14.9747 17.7649 17.039 15.7006 17.039 13.1633V5.36663C17.039 2.82919 14.9747 0.764893 12.4373 0.764893V0.764893ZM8.53905 13.9132C5.97593 13.9132 3.89075 11.828 3.89075 9.26488C3.89075 6.70176 5.97593 4.61658 8.53905 4.61658C11.1022 4.61658 13.1873 6.70176 13.1873 9.26488C13.1873 11.828 11.1022 13.9132 8.53905 13.9132ZM13.2985 5.7128C12.5411 5.7128 11.925 5.09672 11.925 4.33928C11.925 3.58184 12.5411 2.96563 13.2985 2.96563C14.0559 2.96563 14.6721 3.58184 14.6721 4.33928C14.6721 5.09672 14.0559 5.7128 13.2985 5.7128Z" fill="white"/>
</svg>
